<?xml version="1.0" encoding="UTF-8"?>
<svg xmlns="http://www.w3.org/2000/svg" xmlns:xlink="http://www.w3.org/1999/xlink" width="px" height="px" viewBox="0 0 450 300" version="1.1">
<g id="surface1">
<rect x="0" y="0" width="450" height="300" style="fill:rgb(100%,100%,100%);fill-opacity:1;stroke:none;"/>
<path style="fill-rule:nonzero;fill:rgb(0%,0%,0%);fill-opacity:1;stroke-width:2;stroke-linecap:butt;stroke-linejoin:miter;stroke:rgb(0%,0%,0%);stroke-opacity:1;stroke-miterlimit:4;" d="M -6.000093 -24.999825 L 6.000153 -25.000157 M -5.99975 -21.999937 L 5.999976 -21.999923 M -5.999926 -18.999702 L 6.000319 -19.000035 " transform="matrix(3.46687,-5.200319,5.200319,3.46687,225,150)"/>
<path style="fill-rule:nonzero;fill:rgb(0%,0%,0%);fill-opacity:1;stroke-width:2;stroke-linecap:butt;stroke-linejoin:miter;stroke:rgb(0%,0%,0%);stroke-opacity:1;stroke-miterlimit:4;" d="M -6.000319 -24.999965 L 5.999926 -25.000298 M -5.999976 -22.000077 L 5.99975 -22.000063 M -6.000153 -18.999843 L 6.000093 -19.000175 " transform="matrix(3.46687,-5.200319,5.200319,3.46687,453.814014,302.542279)"/>
<path style="fill-rule:nonzero;fill:rgb(0%,0%,0%);fill-opacity:1;stroke-width:1;stroke-linecap:butt;stroke-linejoin:miter;stroke:rgb(100%,100%,100%);stroke-opacity:1;stroke-miterlimit:4;" d="M -0.000020443 17.000174 L 0.000140876 27.000205 " transform="matrix(3.46687,-5.200319,5.200319,3.46687,225,150)"/>
<path style=" stroke:none;fill-rule:nonzero;fill:rgb(80.392158%,18.039216%,22.745098%);fill-opacity:1;" d="M 266.601562 87.597656 C 232.136719 64.621094 185.574219 73.933594 162.597656 108.398438 C 139.621094 142.863281 148.933594 189.425781 183.398438 212.402344 C 217.863281 235.378906 264.425781 226.066406 287.402344 191.601562 C 310.378906 157.136719 301.066406 110.574219 266.601562 87.597656 Z M 266.601562 87.597656 "/>
<path style=" stroke:none;fill-rule:nonzero;fill:rgb(0%,27.843139%,62.7451%);fill-opacity:1;" d="M 162.597656 108.398438 C 151.109375 125.628906 155.765625 148.914062 172.996094 160.402344 C 190.230469 171.890625 213.511719 167.230469 225 150 C 236.488281 132.769531 259.769531 128.109375 277.003906 139.597656 C 294.234375 151.085938 298.890625 174.371094 287.402344 191.601562 C 264.425781 226.066406 217.863281 235.378906 183.398438 212.402344 C 148.933594 189.425781 139.621094 142.863281 162.597656 108.398438 Z M 162.597656 108.398438 "/>
<path style="fill-rule:nonzero;fill:rgb(0%,0%,0%);fill-opacity:1;stroke-width:2;stroke-linecap:butt;stroke-linejoin:miter;stroke:rgb(0%,0%,0%);stroke-opacity:1;stroke-miterlimit:4;" d="M -6.000151 -25.000158 L 6.000094 -24.999825 M -5.999974 -21.999923 L 5.999751 -21.999937 M -6.000318 -19.000035 L 5.999928 -18.999702 " transform="matrix(-3.46687,-5.200318,5.200318,-3.46687,225,150)"/>
<path style="fill-rule:nonzero;fill:rgb(0%,0%,0%);fill-opacity:1;stroke-width:2;stroke-linecap:butt;stroke-linejoin:miter;stroke:rgb(0%,0%,0%);stroke-opacity:1;stroke-miterlimit:4;" d="M -5.999928 -25.000298 L 6.000318 -24.999965 M -5.999751 -22.000063 L 5.999974 -22.000077 M -6.000094 -19.000175 L 6.000151 -18.999842 " transform="matrix(-3.46687,-5.200318,5.200318,-3.46687,453.814004,-2.542294)"/>
<path style="fill-rule:nonzero;fill:rgb(0%,0%,0%);fill-opacity:1;stroke-width:1;stroke-linecap:butt;stroke-linejoin:miter;stroke:rgb(100%,100%,100%);stroke-opacity:1;stroke-miterlimit:4;" d="M -0.000200038 -23.500047 L -0.0000232866 -20.499812 M 0.0000193112 17.000174 L 0.0000232866 20.499812 M 0.000200038 23.500047 L -0.000143241 26.499935 " transform="matrix(-3.46687,-5.200318,5.200318,-3.46687,225,150)"/>
</g>
</svg>
