<?xml version="1.0" encoding="UTF-8"?>
<svg xmlns="http://www.w3.org/2000/svg" xmlns:xlink="http://www.w3.org/1999/xlink" width="300px" height="200px" viewBox="0 0 300 200" version="1.1">
<g id="surface1">
<rect x="0" y="0" width="300" height="200" style="fill:rgb(100%,100%,100%);fill-opacity:1;stroke:none;"/>
<path style="fill-rule:nonzero;fill:rgb(0%,0%,0%);fill-opacity:1;stroke-width:2;stroke-linecap:butt;stroke-linejoin:miter;stroke:rgb(0%,0%,0%);stroke-opacity:1;stroke-miterlimit:4;" d="M -5.999833 -24.999998 L 5.999893 -24.999984 M -6.000096 -22.000457 L 6.000149 -21.999663 M -5.99984 -19.000136 L 5.999886 -19.000121 " transform="matrix(2.311247,-3.466879,3.466879,2.311247,150,100)"/>
<path style="fill-rule:nonzero;fill:rgb(0%,0%,0%);fill-opacity:1;stroke-width:2;stroke-linecap:butt;stroke-linejoin:miter;stroke:rgb(0%,0%,0%);stroke-opacity:1;stroke-miterlimit:4;" d="M -5.999886 -24.999879 L 5.99984 -24.999864 M -6.000149 -22.000337 L 6.000096 -21.999543 M -5.999893 -19.000016 L 5.999833 -19.000002 " transform="matrix(2.311247,-3.466879,3.466879,2.311247,302.542676,201.694853)"/>
<path style="fill-rule:nonzero;fill:rgb(0%,0%,0%);fill-opacity:1;stroke-width:1;stroke-linecap:butt;stroke-linejoin:miter;stroke:rgb(100%,100%,100%);stroke-opacity:1;stroke-miterlimit:4;" d="M -0.000280459 17.000348 L 0.000227548 26.999772 " transform="matrix(2.311247,-3.466879,3.466879,2.311247,150,100)"/>
<path style=" stroke:none;fill-rule:nonzero;fill:rgb(80.392158%,18.039216%,22.745098%);fill-opacity:1;" d="M 177.734375 58.398438 C 154.757812 43.078125 123.714844 49.289062 108.398438 72.265625 C 93.078125 95.242188 99.289062 126.285156 122.265625 141.601562 C 145.242188 156.921875 176.285156 150.710938 191.601562 127.734375 C 206.921875 104.757812 200.710938 73.714844 177.734375 58.398438 Z M 177.734375 58.398438 "/>
<path style=" stroke:none;fill-rule:nonzero;fill:rgb(0%,27.843139%,62.7451%);fill-opacity:1;" d="M 108.398438 72.265625 C 100.738281 83.753906 103.84375 99.273438 115.332031 106.933594 C 126.820312 114.59375 142.339844 111.488281 150 100 C 157.660156 88.511719 173.179688 85.40625 184.667969 93.066406 C 196.15625 100.726562 199.261719 116.246094 191.601562 127.734375 C 176.285156 150.710938 145.242188 156.921875 122.265625 141.601562 C 99.289062 126.285156 93.078125 95.242188 108.398438 72.265625 Z M 108.398438 72.265625 "/>
<path style="fill-rule:nonzero;fill:rgb(0%,0%,0%);fill-opacity:1;stroke-width:2;stroke-linecap:butt;stroke-linejoin:miter;stroke:rgb(0%,0%,0%);stroke-opacity:1;stroke-miterlimit:4;" d="M -5.999891 -24.999984 L 5.999834 -24.999998 M -6.000148 -21.999663 L 6.000098 -22.000457 M -5.999884 -19.000122 L 5.999841 -19.000135 " transform="matrix(-2.311247,-3.466879,3.466879,-2.311247,150,100)"/>
<path style="fill-rule:nonzero;fill:rgb(0%,0%,0%);fill-opacity:1;stroke-width:2;stroke-linecap:butt;stroke-linejoin:miter;stroke:rgb(0%,0%,0%);stroke-opacity:1;stroke-miterlimit:4;" d="M -5.999841 -24.999865 L 5.999884 -24.999878 M -6.000098 -21.999543 L 6.000148 -22.000337 M -5.999834 -19.000002 L 5.999891 -19.000016 " transform="matrix(-2.311247,-3.466879,3.466879,-2.311247,302.542669,-1.694863)"/>
<path style="fill-rule:nonzero;fill:rgb(0%,0%,0%);fill-opacity:1;stroke-width:1;stroke-linecap:butt;stroke-linejoin:miter;stroke:rgb(100%,100%,100%);stroke-opacity:1;stroke-miterlimit:4;" d="M 0.000493337 -23.49996 L 0.000236729 -20.499639 M 0.000279327 17.000348 L -0.000236729 20.499639 M -0.000493337 23.49996 L -0.000229914 26.499502 " transform="matrix(-2.311247,-3.466879,3.466879,-2.311247,150,100)"/>
</g>
</svg>
