<?xml version="1.0" encoding="UTF-8"?>
<svg xmlns="http://www.w3.org/2000/svg" xmlns:xlink="http://www.w3.org/1999/xlink" width="300px" height="200px" viewBox="0 0 300 200" version="1.1">
<g id="surface1">
<rect x="0" y="0" width="300" height="200" style="fill:rgb(100%,100%,100%);fill-opacity:1;stroke:none;"/>
<path style="fill:none;stroke-width:480;stroke-linecap:butt;stroke-linejoin:miter;stroke:rgb(80.000001%,0%,0%);stroke-opacity:1;stroke-miterlimit:4;" d="M 480.025 240.05625 L 13440 240.05625 M 13440 1200.01875 L 480.025 1200.01875 M 480.025 2159.98125 L 13440 2159.98125 M 13440 3119.94375 L 480.025 3119.94375 " transform="matrix(0.0223214,0,0,0.0297619,0,0)"/>
<path style=" stroke:none;fill-rule:nonzero;fill:rgb(0%,0%,40.000001%);fill-opacity:1;" d="M 0 0 L 150 0 L 150 121.429688 L 0 121.429688 Z M 0 0 "/>
<path style="fill:none;stroke-width:480;stroke-linecap:butt;stroke-linejoin:miter;stroke:rgb(80.000001%,0%,0%);stroke-opacity:1;stroke-miterlimit:4;" d="M 0 4080.0375 L 13440 4080.0375 M 13440 5040 L 0 5040 M 0 5999.9625 L 13440 5999.9625 " transform="matrix(0.0223214,0,0,0.0297619,0,0)"/>
<path style=" stroke:none;fill-rule:nonzero;fill:rgb(100%,80.000001%,0%);fill-opacity:1;" d="M 93.75 21.429688 L 96.136719 43.214844 L 105.378906 24.96875 L 100.425781 45.980469 L 114.6875 34.882812 L 103.394531 50.953125 L 119.867188 49.195312 L 104.464844 57.144531 L 119.867188 65.089844 L 103.394531 63.332031 L 114.6875 79.40625 L 100.425781 68.304688 L 105.378906 89.316406 L 96.136719 71.070312 L 93.75 92.855469 L 91.363281 71.070312 L 82.121094 89.316406 L 87.074219 68.304688 L 72.8125 79.40625 L 84.105469 63.332031 L 67.632812 65.089844 L 83.035156 57.144531 L 67.632812 49.195312 L 84.105469 50.953125 L 72.8125 34.882812 L 87.074219 45.980469 L 82.121094 24.96875 L 91.363281 43.214844 Z M 80.355469 22.320312 C 68.375 15.234375 54.3125 19.925781 46.246094 33.703125 C 38.179688 47.480469 38.179688 66.808594 46.246094 80.582031 C 54.3125 94.359375 68.375 99.054688 80.355469 91.964844 C 67.03125 104.714844 48.640625 102.039062 37.691406 85.757812 C 26.738281 69.476562 26.738281 44.8125 37.691406 28.527344 C 48.640625 12.246094 67.03125 9.570312 80.355469 22.320312 Z M 80.355469 22.320312 "/>
</g>
</svg>
