<?xml version="1.0" encoding="UTF-8"?>
<svg xmlns="http://www.w3.org/2000/svg" xmlns:xlink="http://www.w3.org/1999/xlink" width="px" height="px" viewBox="0 0 600 300" version="1.1">
<g id="surface1">
<rect x="0" y="0" width="600" height="300" style="fill:rgb(0%,21.960784%,65.882355%);fill-opacity:1;stroke:none;"/>
<path style=" stroke:none;fill-rule:nonzero;fill:rgb(80.784315%,6.666667%,14.901961%);fill-opacity:1;" d="M 0 150 L 600 150 L 600 300 L 0 300 Z M 0 150 "/>
<path style=" stroke:none;fill-rule:nonzero;fill:rgb(100%,100%,100%);fill-opacity:1;" d="M 259.808594 150 L 0 300 L 0 0 "/>
<path style=" stroke:none;fill-rule:nonzero;fill:rgb(98.823529%,81.960785%,8.627451%);fill-opacity:1;" d="M 15 25.980469 L 24.03125 33.785156 L 34.484375 28.03125 L 29.855469 39.03125 L 38.558594 47.191406 L 26.667969 46.1875 L 21.59375 56.988281 L 18.871094 45.371094 L 7.03125 43.878906 L 17.242188 37.703125 Z M 218.292969 134.148438 L 218.535156 146.082031 L 229.808594 150 L 218.53125 153.917969 L 218.292969 165.851562 L 211.078125 156.339844 L 199.65625 159.796875 L 206.476562 150 L 199.65625 140.203125 L 211.082031 143.660156 Z M 21.589844 243.011719 L 26.664062 253.808594 L 38.558594 252.808594 L 29.855469 260.972656 L 34.484375 271.972656 L 24.03125 266.214844 L 15 274.019531 L 17.242188 262.296875 L 7.03125 256.121094 L 18.871094 254.628906 Z M 93.332031 86.667969 L 89.4375 90.5625 L 91.371094 120.0625 C 90.710938 120.105469 90.0625 120.171875 89.421875 120.253906 L 85.871094 93.332031 L 82.695312 96.511719 L 87.480469 120.574219 C 83.542969 121.351562 79.882812 122.898438 76.664062 125.054688 L 63.039062 104.65625 L 58.539062 104.65625 L 75.070312 126.203125 C 74.550781 126.601562 74.046875 127.015625 73.558594 127.449219 L 54.058594 105.214844 L 48.550781 105.214844 L 48.550781 110.726562 L 70.78125 130.226562 C 70.351562 130.714844 69.933594 131.21875 69.535156 131.738281 L 47.988281 115.203125 L 47.988281 119.703125 L 68.390625 133.335938 C 66.195312 136.605469 64.671875 140.28125 63.90625 144.144531 L 39.84375 139.359375 L 36.664062 142.539062 L 63.585938 146.085938 C 63.503906 146.730469 63.4375 147.378906 63.398438 148.039062 L 33.894531 146.105469 L 30 150 L 33.894531 153.894531 L 63.394531 151.960938 C 63.441406 152.621094 63.503906 153.273438 63.585938 153.917969 L 36.664062 157.460938 L 39.84375 160.640625 L 63.90625 155.855469 C 64.683594 159.789062 66.234375 163.449219 68.386719 166.667969 L 47.988281 180.296875 L 47.988281 184.792969 L 69.535156 168.261719 C 69.933594 168.78125 70.351562 169.285156 70.785156 169.773438 L 48.550781 189.273438 L 48.550781 194.785156 L 54.058594 194.785156 L 73.558594 172.550781 C 74.050781 172.984375 74.554688 173.398438 75.074219 173.796875 L 58.539062 195.34375 L 63.039062 195.34375 L 76.671875 174.941406 C 79.941406 177.136719 83.617188 178.664062 87.480469 179.429688 L 82.691406 203.488281 L 85.871094 206.667969 L 89.417969 179.746094 C 90.0625 179.828125 90.710938 179.894531 91.371094 179.9375 L 89.4375 209.4375 L 93.332031 213.332031 L 97.226562 209.4375 L 95.296875 179.9375 C 95.953125 179.894531 96.601562 179.828125 97.246094 179.746094 L 100.796875 206.667969 L 103.972656 203.488281 L 99.1875 179.425781 C 103.054688 178.660156 106.730469 177.136719 110.003906 174.945312 L 123.628906 195.34375 L 128.128906 195.34375 L 111.597656 173.796875 C 112.113281 173.398438 112.617188 172.984375 113.109375 172.550781 L 132.609375 194.785156 L 138.117188 194.785156 L 138.117188 189.273438 L 115.886719 169.773438 C 116.316406 169.285156 116.734375 168.78125 117.128906 168.261719 L 138.675781 184.792969 L 138.675781 180.300781 L 118.273438 166.667969 C 120.46875 163.394531 121.992188 159.722656 122.761719 155.859375 L 146.824219 160.640625 L 150 157.460938 L 123.078125 153.914062 C 123.164062 153.269531 123.230469 152.621094 123.269531 151.960938 L 152.769531 153.894531 L 156.671875 150 L 152.773438 146.105469 L 123.273438 148.039062 C 123.230469 147.386719 123.167969 146.734375 123.082031 146.085938 L 150 142.535156 L 146.824219 139.359375 L 122.761719 144.140625 C 121.996094 140.277344 120.472656 136.601562 118.277344 133.328125 L 138.675781 119.699219 L 138.675781 115.203125 L 117.128906 131.734375 C 116.730469 131.214844 116.316406 130.710938 115.886719 130.222656 L 138.117188 110.722656 L 138.117188 105.210938 L 132.609375 105.210938 L 113.109375 127.449219 C 112.617188 127.015625 112.113281 126.597656 111.59375 126.199219 L 128.128906 104.65625 L 123.628906 104.65625 L 110 125.058594 C 106.726562 122.863281 103.054688 121.339844 99.191406 120.574219 L 103.976562 96.511719 L 100.796875 93.332031 L 97.25 120.253906 C 96.605469 120.171875 95.953125 120.105469 95.300781 120.0625 L 97.230469 90.5625 Z M 93.332031 86.667969 "/>
</g>
</svg>
