<?xml version="1.0" encoding="UTF-8"?>
<svg xmlns="http://www.w3.org/2000/svg" xmlns:xlink="http://www.w3.org/1999/xlink" width="300px" height="200px" viewBox="0 0 300 200" version="1.1">
<g id="surface1">
<rect x="0" y="0" width="300" height="200" style="fill:rgb(0%,21.960784%,65.882355%);fill-opacity:1;stroke:none;"/>
<path style=" stroke:none;fill-rule:nonzero;fill:rgb(80.784315%,6.666667%,14.901961%);fill-opacity:1;" d="M 0 100 L 300 100 L 300 200 L 0 200 Z M 0 100 "/>
<path style=" stroke:none;fill-rule:nonzero;fill:rgb(100%,100%,100%);fill-opacity:1;" d="M 129.902344 100 L 0 200 L 0 0 "/>
<path style=" stroke:none;fill-rule:nonzero;fill:rgb(98.823529%,81.960785%,8.627451%);fill-opacity:1;" d="M 7.5 17.320312 L 12.015625 22.523438 L 17.242188 18.6875 L 14.925781 26.019531 L 19.28125 31.460938 L 13.332031 30.792969 L 10.796875 37.992188 L 9.4375 30.246094 L 3.515625 29.253906 L 8.621094 25.136719 Z M 109.144531 89.433594 L 109.265625 97.386719 L 114.902344 100 L 109.265625 102.613281 L 109.144531 110.566406 L 105.539062 104.226562 L 99.828125 106.53125 L 103.238281 100 L 99.828125 93.46875 L 105.542969 95.773438 Z M 10.796875 162.007812 L 13.332031 169.207031 L 19.28125 168.539062 L 14.925781 173.980469 L 17.242188 181.316406 L 12.015625 177.476562 L 7.5 182.679688 L 8.621094 174.863281 L 3.515625 170.746094 L 9.4375 169.753906 Z M 46.667969 57.777344 L 44.71875 60.375 L 45.683594 80.042969 C 45.355469 80.070312 45.03125 80.113281 44.710938 80.167969 L 42.933594 62.222656 L 41.347656 64.339844 L 43.738281 80.382812 C 41.769531 80.902344 39.941406 81.933594 38.332031 83.371094 L 31.519531 69.769531 L 29.269531 69.769531 L 37.535156 84.136719 C 37.273438 84.402344 37.023438 84.679688 36.777344 84.964844 L 27.027344 70.144531 L 24.273438 70.144531 L 24.273438 73.816406 L 35.390625 86.816406 C 35.175781 87.144531 34.96875 87.480469 34.765625 87.828125 L 23.996094 76.804688 L 23.996094 79.804688 L 34.195312 88.890625 C 33.097656 91.070312 32.335938 93.519531 31.953125 96.097656 L 19.921875 92.90625 L 18.332031 95.023438 L 31.792969 97.390625 C 31.75 97.820312 31.71875 98.253906 31.699219 98.691406 L 16.949219 97.402344 L 15 100 L 16.949219 102.597656 L 31.699219 101.308594 C 31.71875 101.746094 31.75 102.183594 31.792969 102.613281 L 18.332031 104.976562 L 19.921875 107.09375 L 31.953125 103.902344 C 32.34375 106.527344 33.117188 108.964844 34.195312 111.113281 L 23.996094 120.199219 L 23.996094 123.195312 L 34.765625 112.175781 C 34.96875 112.523438 35.175781 112.855469 35.390625 113.183594 L 24.273438 126.183594 L 24.273438 129.855469 L 27.03125 129.855469 L 36.777344 115.035156 C 37.023438 115.320312 37.277344 115.601562 37.535156 115.863281 L 29.269531 130.226562 L 31.519531 130.226562 L 38.335938 116.628906 C 39.96875 118.09375 41.808594 119.109375 43.738281 119.621094 L 41.347656 135.660156 L 42.9375 137.777344 L 44.707031 119.832031 C 45.03125 119.886719 45.355469 119.929688 45.683594 119.957031 L 44.71875 139.625 L 46.667969 142.222656 L 48.613281 139.625 L 47.648438 119.957031 C 47.976562 119.929688 48.300781 119.886719 48.625 119.832031 L 50.398438 137.777344 L 51.984375 135.660156 L 49.59375 119.617188 C 51.527344 119.105469 53.363281 118.09375 55 116.628906 L 61.816406 130.230469 L 64.0625 130.230469 L 55.796875 115.863281 C 56.058594 115.597656 56.308594 115.320312 56.554688 115.035156 L 66.304688 129.855469 L 69.058594 129.855469 L 69.058594 126.183594 L 57.941406 113.183594 C 58.15625 112.855469 58.367188 112.519531 58.566406 112.171875 L 69.335938 123.195312 L 69.335938 120.199219 L 59.136719 111.113281 C 60.234375 108.929688 60.996094 106.480469 61.378906 103.90625 L 73.410156 107.09375 L 75 104.976562 L 61.539062 102.609375 C 61.582031 102.179688 61.613281 101.746094 61.636719 101.308594 L 76.386719 102.597656 L 78.335938 100 L 76.386719 97.402344 L 61.636719 98.691406 C 61.617188 98.257812 61.585938 97.824219 61.542969 97.390625 L 75 95.023438 L 73.410156 92.90625 L 61.378906 96.09375 C 60.996094 93.519531 60.234375 91.070312 59.140625 88.886719 L 69.339844 79.800781 L 69.339844 76.800781 L 58.566406 87.820312 C 58.363281 87.476562 58.15625 87.140625 57.941406 86.816406 L 69.058594 73.816406 L 69.058594 70.140625 L 66.304688 70.140625 L 56.554688 84.964844 C 56.308594 84.675781 56.054688 84.398438 55.796875 84.132812 L 64.0625 69.769531 L 61.816406 69.769531 L 55 83.371094 C 53.363281 81.910156 51.527344 80.890625 49.59375 80.382812 L 51.988281 64.339844 L 50.398438 62.222656 L 48.625 80.167969 C 48.300781 80.113281 47.976562 80.070312 47.648438 80.042969 L 48.613281 60.375 Z M 46.667969 57.777344 "/>
</g>
</svg>
